<?xml version="1.0" encoding="utf-8"?><!-- Uploaded to: SVG Repo, www.svgrepo.com, Generator: SVG Repo Mixer Tools -->
<svg width="800px" height="800px" viewBox="0 0 400 400" fill="none" xmlns="http://www.w3.org/2000/svg">
<path d="M101.682 97.5197C109.977 87.2297 122.685 84.4431 134.97 89.8533C156.179 99.1929 169.981 118.98 169.981 143.521C169.981 248.937 9.86982 171.22 91.9238 93.392" stroke="#000000" stroke-opacity="0.9" stroke-width="16" stroke-linecap="round" stroke-linejoin="round"/>
<path d="M165.412 210.025C176.551 238.986 192.545 276.536 188.389 311.859" stroke="#000000" stroke-opacity="0.9" stroke-width="16" stroke-linecap="round" stroke-linejoin="round"/>
<path d="M166.443 212.253C167.642 232.605 166.443 293.567 155.387 341.465" stroke="#000000" stroke-opacity="0.9" stroke-width="16" stroke-linecap="round" stroke-linejoin="round"/>
<path d="M218.858 197.2C208.926 238.345 200.378 297.202 188.383 311.859" stroke="#000000" stroke-opacity="0.9" stroke-width="16" stroke-linecap="round" stroke-linejoin="round"/>
<path d="M220.938 190.969C235.424 179.708 245.713 191.358 229.247 203.433" stroke="#000000" stroke-opacity="0.9" stroke-width="16" stroke-linecap="round" stroke-linejoin="round"/>
<path d="M228.73 203.951C244.943 202.64 242.324 216.175 227.172 215.377" stroke="#000000" stroke-opacity="0.9" stroke-width="16" stroke-linecap="round" stroke-linejoin="round"/>
<path d="M206.91 133.321C211.658 146.086 220.188 182.231 220.413 183.177" stroke="#000000" stroke-opacity="0.5" stroke-width="16" stroke-linecap="round" stroke-linejoin="round"/>
<path d="M207.949 131.244C234.932 111.605 262.93 92.9973 290.525 74.1155" stroke="#000000" stroke-opacity="0.9" stroke-width="16" stroke-linecap="round" stroke-linejoin="round"/>
<path d="M293.645 75.1538C298.546 103.584 303.119 134.019 311.821 161.365" stroke="#000000" stroke-opacity="0.9" stroke-width="16" stroke-linecap="round" stroke-linejoin="round"/>
<path d="M214.184 165.521C246.129 164.854 278.228 161.365 310.262 161.365" stroke="#000000" stroke-opacity="0.9" stroke-width="16" stroke-linecap="round" stroke-linejoin="round"/>
<path d="M151.87 175.958C151.064 171.093 150.066 164.915 149.574 160.624" stroke="#000000" stroke-opacity="0.9" stroke-width="16" stroke-linecap="round" stroke-linejoin="round"/>
<path d="M151.618 132.316C151.828 130.138 151.033 126.517 150.471 124.588" stroke="#000000" stroke-opacity="0.9" stroke-width="16" stroke-linecap="round" stroke-linejoin="round"/>
<path d="M132.676 134.085C132.774 132.316 132.592 129.901 132.396 127.288" stroke="#000000" stroke-opacity="0.9" stroke-width="16" stroke-linecap="round" stroke-linejoin="round"/>
<path d="M319.09 75.1553C324.742 69.5792 337.881 61.5808 341.941 58.5356" stroke="#000000" stroke-opacity="0.5" stroke-width="16" stroke-linecap="round" stroke-linejoin="round"/>
<path d="M334.725 106.501C341.808 103.798 349.432 101.84 356.537 99.7498" stroke="#000000" stroke-opacity="0.5" stroke-width="16" stroke-linecap="round" stroke-linejoin="round"/>
<path d="M335.707 143.708C342.73 146.275 349.655 146.305 356.999 146.305" stroke="#000000" stroke-opacity="0.5" stroke-width="16" stroke-linecap="round" stroke-linejoin="round"/>
<path d="M193.928 141.631C180.731 158.383 193.312 166.049 208.47 159.808" stroke="#000000" stroke-opacity="0.9" stroke-width="16" stroke-linecap="round" stroke-linejoin="round"/>
<path d="M237.554 172.272C238.206 177.451 234.174 182.79 232.881 186.813" stroke="#000000" stroke-opacity="0.9" stroke-width="16" stroke-linecap="round" stroke-linejoin="round"/>
<path d="M78.5293 218.936C90.8485 261.118 97.4655 276.666 97.4655 341.465" stroke="#000000" stroke-opacity="0.9" stroke-width="16" stroke-linecap="round" stroke-linejoin="round"/>
<path d="M77.4148 218.936C67.4031 240.991 37.1441 326.551 45.4121 339.237" stroke="#000000" stroke-opacity="0.9" stroke-width="16" stroke-linecap="round" stroke-linejoin="round"/>
</svg>