<?xml version="1.0" ?>
<!-- Uploaded to: SVG Repo, www.svgrepo.com, Generator: SVG Repo Mixer Tools -->
<svg fill="#000000" width="800px" height="800px" viewBox="0 0 64 64" version="1.1" xml:space="preserve" xmlns="http://www.w3.org/2000/svg" xmlns:xlink="http://www.w3.org/1999/xlink">
<g id="Layer_2"/>
<g id="Layer_3">
<g>
<path d="M35.49,28.46c-0.39-0.39-1.02-0.39-1.41,0l-5.28,5.28c-0.39,0.39-0.39,1.02,0,1.41l5.28,5.28c0.2,0.2,0.45,0.29,0.71,0.29    s0.51-0.1,0.71-0.29l5.28-5.28c0.39-0.39,0.39-1.02,0-1.41L35.49,28.46z M34.79,38.31l-3.86-3.86l3.86-3.86l3.86,3.86L34.79,38.31    z"/>
<path d="M34.42,44.08c-0.39-0.39-1.02-0.39-1.41,0l-5.28,5.28c-0.39,0.39-0.39,1.02,0,1.41l5.28,5.28c0.2,0.2,0.45,0.29,0.71,0.29    s0.51-0.1,0.71-0.29l5.28-5.28c0.19-0.19,0.29-0.44,0.29-0.71s-0.11-0.52-0.29-0.71L34.42,44.08z M33.71,53.93l-3.86-3.86    l3.86-3.86l3.86,3.86L33.71,53.93z"/>
<path d="M46.21,12.1L32.42,4.44c-0.28-0.16-0.63-0.17-0.92-0.03c-0.29,0.14-0.5,0.42-0.55,0.74l-1.46,9.11H18.28    c-0.55,0-1,0.45-1,1v10.02v33.41c0,0.55,0.45,1,1,1h24.24c0.55,0,1-0.45,1-1V27.72V15.26c0-0.55-0.45-1-1-1H31.51l1.18-7.38    l12.54,6.97c0.48,0.27,1.09,0.09,1.36-0.39C46.86,12.97,46.69,12.36,46.21,12.1z M19.28,16.26h9.89L27.5,26.69    c-0.03,0.01-0.06,0.01-0.09,0.02c-0.62,0.11-1.25,0.15-1.88,0.12c-0.11-0.01-0.23-0.02-0.34-0.03c-0.2-0.02-0.4-0.04-0.59-0.07    c-0.13-0.02-0.25-0.05-0.37-0.07c-0.19-0.04-0.39-0.09-0.58-0.14c-0.11-0.03-0.23-0.06-0.34-0.1c-0.22-0.07-0.43-0.15-0.65-0.24    c-0.08-0.03-0.17-0.06-0.25-0.1c-0.3-0.13-0.59-0.28-0.88-0.45c-0.42-0.25-0.86-0.47-1.31-0.67c-0.13-0.06-0.27-0.11-0.4-0.17    c-0.18-0.07-0.35-0.16-0.53-0.22V16.26z M29.99,41.79l-3.86,3.86l-3.86-3.86l3.86-3.86L29.99,41.79z M41.52,57.69H19.28V26.72    c0.4,0.18,0.79,0.38,1.17,0.6c0.02,0.01,0.03,0.02,0.05,0.03c0.38,0.22,0.78,0.42,1.18,0.59c0.11,0.05,0.23,0.09,0.34,0.14    c0.3,0.12,0.6,0.22,0.9,0.31c0.13,0.04,0.25,0.08,0.38,0.11c0.4,0.1,0.8,0.19,1.2,0.24c0.1,0.01,0.2,0.02,0.3,0.03    c0.32,0.04,0.64,0.06,0.96,0.06c0.06,0,0.13,0.01,0.19,0.01c0.11,0,0.22-0.01,0.33-0.02c0.18-0.01,0.35-0.01,0.53-0.03    c0.12-0.01,0.24-0.02,0.35-0.03l-1.08,6.75c-0.25,0.01-0.5,0.11-0.68,0.29l-5.27,5.28c-0.39,0.39-0.39,1.02,0,1.41l4.16,4.16    l-1.47,9.19c-0.09,0.55,0.28,1.06,0.83,1.15C23.72,57,23.77,57,23.82,57c0.48,0,0.91-0.35,0.99-0.84l1.3-8.1c0.01,0,0.01,0,0.02,0    c0.26,0,0.51-0.1,0.71-0.29l5.28-5.27c0.19-0.19,0.29-0.44,0.29-0.71c0-0.27-0.11-0.52-0.29-0.71l-4.21-4.21l1.37-8.59    c0.32-0.11,0.64-0.24,0.93-0.38c0.46-0.22,0.93-0.4,1.41-0.55c0.15-0.05,0.31-0.08,0.47-0.12c0.33-0.09,0.66-0.19,1-0.25    c0.18-0.03,0.35-0.05,0.53-0.07c0.32-0.05,0.64-0.1,0.97-0.12c0.18-0.01,0.35-0.01,0.53-0.01c0.33-0.01,0.65-0.02,0.98,0    c0.18,0.01,0.35,0.03,0.53,0.05c0.32,0.03,0.65,0.06,0.97,0.11c0.18,0.03,0.35,0.07,0.52,0.11c0.31,0.07,0.63,0.14,0.94,0.23    c0.18,0.05,0.36,0.12,0.54,0.18c0.29,0.1,0.58,0.2,0.86,0.33c0.19,0.08,0.38,0.18,0.57,0.27c0.17,0.09,0.34,0.18,0.51,0.27V57.69z     M41.52,16.26v9.79c-0.03-0.01-0.06-0.02-0.09-0.03c-0.43-0.19-0.86-0.36-1.3-0.51c-0.06-0.02-0.12-0.04-0.17-0.06    c-1.44-0.47-2.95-0.72-4.48-0.72c-2.03,0-3.98,0.43-5.84,1.25l1.55-9.72H41.52z"/>
</g>
</g>
<g id="Layer_4"/>
<g id="Layer_5"/>
<g id="Layer_6"/>
<g id="Layer_7"/>
<g id="Layer_8"/>
<g id="Layer_9"/>
<g id="Layer_10"/>
<g id="Layer_11"/>
<g id="Layer_12"/>
</svg>